<svg width="97" height="100" viewBox="0 0 97 100" fill="none" xmlns="http://www.w3.org/2000/svg">
<path d="M31.4517 72.2142C31.3557 72.0862 31.1797 72.0062 30.9237 71.9742C30.6997 71.9742 30.4277 71.8942 30.1077 71.7342C29.7877 71.5742 29.4357 71.2222 29.0517 70.6782C28.9237 70.8702 28.8277 70.8222 28.7637 70.5342C28.7317 70.2462 28.6997 69.9102 28.6677 69.5262C28.6677 69.1742 28.6677 68.9502 28.6677 68.8542L28.3797 68.7582C28.3477 68.6942 28.3477 68.6142 28.3797 68.5182C28.4437 68.4542 28.4757 68.4062 28.4757 68.3742C28.4757 67.9582 28.4117 67.4622 28.2837 66.8862C28.1877 66.3102 28.0917 65.8142 27.9957 65.3982L28.2357 65.3022L27.9957 65.1102C27.8677 64.9822 27.7877 64.7262 27.7557 64.3422C27.7237 63.9262 27.7077 63.4942 27.7077 63.0462C27.7077 62.5982 27.6597 62.2622 27.5637 62.0382L27.9957 61.7502L27.5157 61.5582C27.5477 61.3982 27.5637 61.2542 27.5637 61.1262C27.5957 60.9982 27.6117 60.8702 27.6117 60.7422C27.6117 60.3902 27.5797 60.0542 27.5157 59.7342C27.4837 59.3822 27.4677 59.0302 27.4677 58.6782C27.4677 58.5182 27.4677 58.3582 27.4677 58.1982C27.4997 58.0382 27.5317 57.8622 27.5637 57.6702C27.3397 57.2542 27.2437 56.8062 27.2757 56.3262C27.3077 55.8462 27.2917 55.3822 27.2277 54.9342C27.3557 55.0622 27.4197 55.0142 27.4197 54.7902C27.4197 54.5662 27.3557 54.5342 27.2277 54.6942C27.1317 54.4382 27.0837 54.1822 27.0837 53.9262C27.0837 53.6382 27.1317 53.3982 27.2277 53.2062H27.4197L27.2277 52.8702L27.5637 51.5742C27.4357 51.5422 27.3397 51.4302 27.2757 51.2382C27.2117 51.0462 27.1797 50.8382 27.1797 50.6142C27.1797 50.3262 27.1957 50.0542 27.2277 49.7982C27.2597 49.5422 27.2917 49.3662 27.3237 49.2702C27.3877 49.2062 27.4357 48.8382 27.4677 48.1662C27.4997 47.4942 27.4837 46.8542 27.4197 46.2462L27.5157 46.3902L27.5637 46.1502L27.6597 43.5582H27.7077C27.8357 43.5582 27.9157 43.4942 27.9477 43.3662C27.9797 43.2062 27.9317 43.1102 27.8037 43.0782L27.9957 41.0622L28.3797 41.2542V40.9662L27.9957 40.3902C28.0917 40.1342 28.2197 39.9422 28.3797 39.8142C28.5397 39.6862 28.4437 39.6222 28.0917 39.6222L28.1397 38.8062C28.1717 38.7422 28.2357 38.7262 28.3317 38.7582C28.4597 38.7582 28.5397 38.7582 28.5717 38.7582C28.5717 38.5022 28.5557 38.2622 28.5237 38.0382C28.5237 37.7822 28.5237 37.5422 28.5237 37.3182C28.5237 36.7422 28.5717 36.1662 28.6677 35.5902L29.0517 35.4462L28.8597 34.0542H28.8117C28.6837 34.0542 28.4917 34.1982 28.2357 34.4862C28.0117 34.7422 27.8677 34.9182 27.8037 35.0142C27.8037 34.9502 27.7877 34.9022 27.7557 34.8702C27.7557 34.8382 27.7557 34.8062 27.7557 34.7742C27.7557 34.6142 27.7877 34.4382 27.8517 34.2462C27.9157 34.0542 27.9637 33.8782 27.9957 33.7182L28.2357 33.6222L27.9957 33.4782C28.0597 33.0942 28.2037 32.6782 28.4277 32.2302C28.6837 31.7822 28.8917 31.3982 29.0517 31.0782C29.0197 31.0462 28.9557 31.0302 28.8597 31.0302C28.7957 31.0302 28.7477 31.0462 28.7157 31.0782L29.4357 30.1662L29.2437 29.9262C29.3717 29.6702 29.5317 29.3822 29.7237 29.0622C29.9477 28.7102 30.0757 28.4222 30.1077 28.1982C30.2997 28.0702 30.5077 27.9902 30.7317 27.9582C30.9877 27.8942 31.2277 27.8622 31.4517 27.8622V28.2942L32.4117 28.3422L33.1797 29.4462L32.8917 29.5902L33.2757 30.1662L32.8917 31.2222L32.5077 31.5102L32.6037 31.6542C32.5077 32.1662 32.3157 32.7742 32.0277 33.4782C31.7717 34.1822 31.6757 34.8062 31.7397 35.3502L31.3557 36.1662L31.4517 36.8382L31.1637 36.9342L31.2597 37.6062L30.8757 38.4702L31.0197 38.6622H30.8757C30.9397 38.8542 30.9717 39.0302 30.9717 39.1902C30.9717 39.4462 30.9077 39.6542 30.7797 39.8142L30.9717 39.9102L30.6837 39.9582L30.9717 40.1982L30.7797 41.7342C30.6517 41.5742 30.5877 41.6062 30.5877 41.8302C30.5877 42.0542 30.6517 42.0862 30.7797 41.9262C30.7157 41.9582 30.6357 42.2142 30.5397 42.6942C30.4437 43.1742 30.3637 43.7022 30.2997 44.2782C30.2677 44.8222 30.2357 45.2542 30.2037 45.5742C30.4277 45.8942 30.4917 46.3102 30.3957 46.8222H30.2037L30.3957 46.9662V47.0142C30.3957 47.1102 30.3637 47.2542 30.2997 47.4462C30.2357 47.6062 30.1717 47.6862 30.1077 47.6862L30.3957 48.1662C30.3637 48.1662 30.3157 48.2142 30.2517 48.3102C30.1877 48.4062 30.2037 48.4542 30.2997 48.4542L30.1077 49.1262C30.2677 49.1262 30.3477 49.2062 30.3477 49.3662C30.3797 49.5262 30.3637 49.6382 30.2997 49.7022L29.7237 49.8942C29.8837 50.3422 30.0437 50.8222 30.2037 51.3342C30.3637 51.8142 30.4277 52.3102 30.3957 52.8222H30.1077L29.8677 53.4462C29.9637 53.6382 30.0597 53.8302 30.1557 54.0222C30.2837 54.2142 30.3477 54.4062 30.3477 54.5982C30.3477 54.7262 30.2997 54.8702 30.2037 55.0302L30.3957 55.7502C30.4277 55.7502 30.4917 55.7342 30.5877 55.7022C30.7157 55.6702 30.7797 55.6382 30.7797 55.6062L30.5877 55.3662L31.4517 54.5502L33.3717 54.3582C33.3397 54.3262 33.3237 54.2782 33.3237 54.2142C33.3237 54.1502 33.3557 54.0862 33.4197 54.0222C33.5157 53.9582 33.5957 53.9582 33.6597 54.0222L34.3317 53.5422C34.2997 53.5102 34.2837 53.4462 34.2837 53.3502C34.2837 53.1902 34.3797 53.0622 34.5717 52.9662C34.7957 52.8382 34.9717 52.7582 35.0997 52.7262C35.2917 52.4702 35.5797 52.0862 35.9637 51.5742C36.3477 51.0622 36.7477 50.5822 37.1637 50.1342C37.6117 49.6862 37.9797 49.4462 38.2677 49.4142V49.0302L39.2277 48.2622L39.1797 47.9742C39.2757 47.7502 39.4357 47.5262 39.6597 47.3022C39.8837 47.0462 40.1237 46.8862 40.3797 46.8222L40.3317 46.7262H40.5717V46.0542L41.1477 45.8142C41.0197 45.8142 40.9557 45.7342 40.9557 45.5742L41.5317 44.7102H41.6277C41.7557 44.7102 41.8517 44.6622 41.9157 44.5662C41.9797 44.4382 41.9477 44.3582 41.8197 44.3262C42.0757 44.2622 42.3317 44.0702 42.5877 43.7502C42.8757 43.3982 43.0837 43.1102 43.2117 42.8862L42.9717 42.5982L43.5477 42.2142L43.3557 42.1182C43.3557 42.0862 43.4357 41.9742 43.5957 41.7822C43.7877 41.5582 43.9797 41.3502 44.1717 41.1582C44.3637 40.9342 44.4757 40.8062 44.5077 40.7742V40.3902L45.5157 39.9102L45.1797 39.3822L45.6117 38.9502C45.6757 38.9822 45.7557 38.9982 45.8517 38.9982C46.0117 38.9982 46.0757 38.9342 46.0437 38.8062C46.0117 38.6462 46.0597 38.5662 46.1877 38.5662V38.6622L46.4277 38.9502C46.2037 39.3982 46.0437 39.8942 45.9477 40.4382C45.8837 40.9502 45.5797 41.3182 45.0357 41.5422L45.0837 42.2142H44.9397C44.9077 42.2462 44.8917 42.3262 44.8917 42.4542C44.9237 42.5502 44.9077 42.6302 44.8437 42.6942C44.7477 42.8222 44.6517 42.8862 44.5557 42.8862H44.5077C44.4757 42.8862 44.4597 42.9182 44.4597 42.9822C44.4917 43.0462 44.4917 43.2382 44.4597 43.5582C44.0757 43.9102 43.8517 44.3262 43.7877 44.8062L43.2117 44.9022V45.0942C43.2757 45.2222 43.3077 45.3182 43.3077 45.3822C43.3077 45.7022 43.0997 45.9582 42.6837 46.1502C42.6517 46.5342 42.4757 46.9982 42.1557 47.5422C41.8357 48.0862 41.4837 48.6142 41.0997 49.1262C40.7477 49.6062 40.4437 49.9902 40.1877 50.2782H40.0917C39.9957 50.2782 39.9317 50.3582 39.8997 50.5182C39.8677 50.6782 39.8677 50.7902 39.8997 50.8542C39.6117 51.1102 39.4037 51.3502 39.2757 51.5742C39.1797 51.7982 39.0517 52.0222 38.8917 52.2462C38.7637 52.4382 38.4757 52.6302 38.0277 52.8222V52.9662C38.0277 53.4142 37.7557 53.6862 37.2117 53.7822V54.2142C37.0197 54.3422 36.8437 54.5342 36.6837 54.7902C36.5237 55.0142 36.4437 55.2542 36.4437 55.5102L36.5397 55.6062L37.3077 55.2702C37.3717 55.3342 37.6117 55.4302 38.0277 55.5582C38.4437 55.6862 38.9237 55.8302 39.4677 55.9902C40.0437 56.1502 40.5397 56.2942 40.9557 56.4222C41.4037 56.5502 41.6597 56.6302 41.7237 56.6622L42.0597 56.9982L42.9717 57.0942L43.1157 57.4302L44.2677 57.5742L44.6997 58.0062L45.9957 58.4862L45.7557 58.5822C46.0117 58.6462 46.4277 58.7902 47.0037 59.0142C47.5797 59.2382 48.1397 59.4782 48.6837 59.7342C49.2277 59.9902 49.5477 60.2302 49.6437 60.4542H49.6917V60.3102L49.7877 60.4062L50.2677 61.0302C50.2357 61.0302 50.1877 61.0462 50.1237 61.0782C50.0917 61.0782 50.0437 61.0782 49.9797 61.0782C49.7877 61.0782 49.5957 61.0462 49.4037 60.9822C49.2117 60.9182 49.0357 60.8542 48.8757 60.7902C48.9397 60.7262 48.9717 60.6462 48.9717 60.5502C48.9717 60.4862 48.9077 60.4542 48.7797 60.4542H48.3957C48.2997 60.4542 48.1877 60.4542 48.0597 60.4542C47.9637 60.4222 47.8837 60.3742 47.8197 60.3102C47.9157 60.3102 47.9637 60.2462 47.9637 60.1182L46.7637 60.0222C46.7317 59.9902 46.6197 59.9102 46.4277 59.7822C46.2677 59.6542 46.1877 59.5742 46.1877 59.5422C45.6757 59.5422 45.2757 59.4782 44.9877 59.3502C44.6997 59.2222 44.3317 59.1262 43.8837 59.0622C43.9157 59.0302 43.9317 58.9822 43.9317 58.9182C43.9317 58.8222 43.8357 58.7742 43.6437 58.7742C43.4837 58.7422 43.4517 58.8062 43.5477 58.9662C43.4197 58.8702 43.1317 58.7582 42.6837 58.6302C42.2357 58.4702 41.7397 58.3262 41.1957 58.1982C40.6837 58.0382 40.2197 57.9102 39.8037 57.8142C39.4197 57.7182 39.2117 57.6702 39.1797 57.6702L39.0357 57.4302C38.7477 57.3982 38.2677 57.3182 37.5957 57.1902C36.9237 57.0622 36.2677 56.9502 35.6277 56.8542C34.9877 56.7582 34.5557 56.7262 34.3317 56.7582L34.1397 57.3342L33.7557 57.0942C33.5957 57.1902 33.4037 57.2862 33.1797 57.3822C32.9557 57.4782 32.7157 57.5262 32.4597 57.5262C32.2677 57.5262 32.1237 57.4942 32.0277 57.4302L32.1717 57.3342C31.8837 57.3662 31.5637 57.3182 31.2117 57.1902C30.8917 57.0302 30.6837 56.7742 30.5877 56.4222H30.4437V58.0062C30.4437 58.0382 30.4277 58.0382 30.3957 58.0062C30.3957 57.9422 30.3797 57.9102 30.3477 57.9102C30.3157 57.9102 30.2677 57.9582 30.2037 58.0542C30.1397 58.1502 30.1397 58.2622 30.2037 58.3902L30.5877 59.0142C30.5237 59.0782 30.4757 59.2062 30.4437 59.3982C30.4117 59.5902 30.4597 59.6382 30.5877 59.5422L30.4437 60.2142H30.6837C30.7477 60.3422 30.7797 60.4702 30.7797 60.5982C30.7797 60.7582 30.7477 60.9342 30.6837 61.1262C30.6517 61.2862 30.6357 61.4462 30.6357 61.6062C30.6357 61.7982 30.6837 61.9422 30.7797 62.0382L30.4437 62.6142L30.8757 62.7582C30.9077 62.7902 30.8757 62.7902 30.7797 62.7582C30.7157 62.7262 30.6837 62.7262 30.6837 62.7582L30.8757 62.9022C30.8437 62.9342 30.7957 63.0622 30.7317 63.2862C30.6997 63.4782 30.6837 63.6542 30.6837 63.8142C30.6837 64.0702 30.7797 64.1822 30.9717 64.1502L31.0197 64.7262C30.9557 64.6622 30.9237 64.6302 30.9237 64.6302C30.8277 64.6302 30.7797 64.7262 30.7797 64.9182C30.7797 65.2062 30.9077 65.3022 31.1637 65.2062L31.4517 63.6702H31.7397L31.8357 65.5902L31.4517 65.6862L31.7397 66.2622L31.4517 66.7422L31.9317 67.7022L31.5957 68.1822L31.7397 68.2782C31.9317 68.9502 32.0277 69.6222 32.0277 70.2942L31.7397 70.4862C31.9957 70.6142 32.1237 70.8542 32.1237 71.2062C32.1557 71.5582 32.1557 71.8622 32.1237 72.1182L31.4517 72.2142ZM30.5877 59.0142V59.0622V59.0142C30.5237 59.0782 30.4757 59.1902 30.4437 59.3502C30.4117 59.5102 30.4597 59.3982 30.5877 59.0142ZM62.8868 64.8702C62.6628 64.9022 62.3908 64.8062 62.0708 64.5822C61.7508 64.3262 61.5268 64.1182 61.3988 63.9582L61.4468 63.5262C61.4148 63.5262 61.3828 63.5422 61.3508 63.5742C61.3188 63.6062 61.2868 63.6222 61.2548 63.6222L61.4468 62.4222C61.5108 62.4222 61.5268 62.3422 61.4948 62.1822C61.4948 62.0222 61.4948 61.9262 61.4948 61.8942L61.4468 61.8462L61.4948 61.0302H61.6868L61.4468 60.7902L61.5428 60.0702L61.6388 60.0222L61.5428 59.8782L61.6388 59.3502L61.8308 59.2542C61.8308 59.1902 61.7988 59.1262 61.7348 59.0622C61.7028 58.9662 61.6868 58.8862 61.6868 58.8222C61.6868 58.6942 61.7988 58.5182 62.0228 58.2942L61.8308 58.1982L62.1188 57.9582L61.8788 57.8622C62.0388 57.7342 62.0708 57.6222 61.9748 57.5262C61.9108 57.3982 61.9268 57.2702 62.0228 57.1422L62.3588 56.6622L62.1188 56.4222L62.1668 56.1342C62.3268 56.1342 62.4068 56.0862 62.4068 55.9902C62.4068 55.9262 62.3908 55.8462 62.3588 55.7502C62.3268 55.6542 62.3108 55.5582 62.3108 55.4622H62.3588L62.4068 55.5582L62.5508 54.5982L62.6468 54.5502V53.8302H62.8868L62.7428 53.3022L62.6948 53.3502L61.6868 54.9822L61.3988 55.0302L61.0148 55.5582L61.2548 55.6542L61.1108 55.8942H60.7268C60.7908 56.0222 60.8228 56.1182 60.8228 56.1822C60.8228 56.3102 60.7428 56.4222 60.5828 56.5182C60.4228 56.5822 60.3108 56.6302 60.2468 56.6622L60.3428 56.9502L59.9588 57.5742L59.7188 57.4782C59.7188 57.4782 59.7028 57.5102 59.6708 57.5742C59.6708 57.6382 59.6388 57.6702 59.5748 57.6702L59.3348 57.5742L59.2388 57.9582L59.4788 58.0062C59.3508 58.1342 59.2548 58.2462 59.1908 58.3422C59.1268 58.4382 58.9668 58.4862 58.7108 58.4862C58.6788 58.5822 58.7108 58.6782 58.8068 58.7742C58.5508 59.1262 58.2628 59.4782 57.9428 59.8302C57.6548 60.1822 57.3348 60.4862 56.9828 60.7422H56.8388L56.4548 61.1262L56.2628 61.0302L56.1668 61.3662L55.2548 61.7502L55.1588 61.9902L54.8228 61.8942L54.6308 62.1822H54.4388C53.6708 62.1822 53.0308 61.9742 52.5188 61.5582C52.4228 61.3662 52.3748 61.1422 52.3748 60.8862C52.3108 60.8862 52.2628 60.9182 52.2308 60.9822C52.1988 61.0142 52.1668 61.0462 52.1348 61.0782L51.8468 59.8782L51.9908 59.5902L51.8948 59.4942L51.9428 59.1102H52.0868L52.4708 57.3822C52.5028 57.3822 52.5188 57.3982 52.5188 57.4302C52.5508 57.4622 52.5828 57.4782 52.6148 57.4782C52.6788 57.4782 52.7108 57.4302 52.7108 57.3342C52.7108 57.2382 52.6948 57.1742 52.6628 57.1422L52.5668 57.1902C52.6308 56.7102 52.8708 56.3582 53.2868 56.1342C53.2228 56.0702 53.1908 55.9902 53.1908 55.8942C53.1908 55.7982 53.2068 55.7182 53.2388 55.6542C53.3028 55.5582 53.3508 55.4622 53.3828 55.3662L53.5268 55.4142V55.3662L53.4788 55.2702L53.6708 55.1742C53.7028 55.1742 53.6868 55.1262 53.6228 55.0302C53.5908 54.9342 53.6388 54.9502 53.7668 55.0782V54.7422H54.0548C54.1508 54.6142 54.2308 54.4702 54.2948 54.3102C54.3588 54.1502 54.4228 53.9902 54.4868 53.8302H54.9668L54.8228 53.4942L55.0628 53.2062L55.3508 53.3022L55.4948 52.6782L56.2628 52.1022L56.0228 51.9582L56.3108 51.8622L56.3588 52.1502C56.3588 51.7982 56.5028 51.5422 56.7908 51.3822H56.8388L56.8868 51.6222L56.9348 51.5262L56.8868 51.2862L57.4148 50.9022L57.4628 51.0942C57.4948 50.7742 57.6708 50.5342 57.9908 50.3742C58.3108 50.1822 58.6468 50.0062 58.9988 49.8462C59.3508 49.6862 59.5428 49.5102 59.5748 49.3182L59.9588 49.3662C59.9908 49.3342 60.0068 49.2862 60.0068 49.2222C60.0388 49.1262 60.0228 49.0782 59.9588 49.0782C60.2788 49.0462 60.6468 48.9342 61.0628 48.7422H61.5428L61.3028 48.5982L61.3508 48.5502C61.9268 48.3902 62.5188 48.3102 63.1268 48.3102C63.5428 48.3102 63.9268 48.4382 64.2788 48.6942L65.2388 49.0782C65.2708 49.1102 65.2388 49.1262 65.1428 49.1262C65.0788 49.1262 65.0468 49.1582 65.0468 49.2222C65.0468 49.2542 65.0948 49.3022 65.1908 49.3662C65.2868 49.3982 65.3668 49.4142 65.4308 49.4142L65.4788 49.2702C65.5108 49.2702 65.5268 49.3342 65.5268 49.4622C65.5588 49.5582 65.5908 49.5742 65.6228 49.5102L66.0068 49.8942H65.8148L65.7188 51.2862H65.5268L65.4308 51.5262L65.5748 51.8622C65.5748 51.8942 65.5588 51.9582 65.5268 52.0542C65.4948 52.1182 65.4788 52.1022 65.4788 52.0062V51.9102L65.3348 51.9582C65.3668 52.0222 65.3828 52.1182 65.3828 52.2462C65.3828 52.3422 65.3668 52.4542 65.3348 52.5822C65.3348 52.6782 65.3188 52.7902 65.2868 52.9182C65.1588 52.9182 65.0788 52.9342 65.0468 52.9662L64.9028 53.3502C64.8708 53.4782 64.8868 53.5582 64.9508 53.5902C65.0148 53.5902 65.0468 53.6062 65.0468 53.6382L64.9508 53.8302C64.9508 53.9582 64.9508 54.0862 64.9508 54.2142C64.9828 54.3422 64.9828 54.4862 64.9508 54.6462H64.5668L64.0388 54.6942C64.1668 54.8862 64.3108 55.0462 64.4708 55.1742C64.6308 55.2702 64.7108 55.3182 64.7108 55.3182C64.7748 55.3822 64.7908 55.4462 64.7588 55.5102C64.6948 55.6702 64.6308 55.8302 64.5668 55.9902C64.5028 56.1502 64.4388 56.3102 64.3748 56.4702L64.5188 56.5182C64.5508 56.5502 64.5348 56.5662 64.4708 56.5662C64.4388 56.5662 64.4388 56.5822 64.4708 56.6142L64.5188 56.6622C64.5508 56.6942 64.5668 56.7422 64.5668 56.8062C64.5668 56.9342 64.5188 57.0622 64.4228 57.1902C64.3268 57.3182 64.2468 57.4622 64.1828 57.6222H64.3268C64.3268 57.8782 64.3108 58.2302 64.2788 58.6782C64.2468 59.0942 64.1508 59.3982 63.9908 59.5902H63.9428V59.3502H63.7028L64.0388 59.8302C63.9108 60.2462 63.8308 60.6942 63.7988 61.1742C63.7668 61.6222 63.7188 62.0702 63.6548 62.5182L63.9908 62.9502H64.0388V62.6142L64.3268 62.4222H64.5668L64.6628 62.7582L64.7588 62.1822C64.7588 62.1502 64.7588 62.1342 64.7588 62.1342C64.7908 62.1342 64.8068 62.1342 64.8068 62.1342H64.9028C64.9668 61.9102 64.9828 61.7502 64.9508 61.6542C65.1428 61.3982 65.3668 61.0622 65.6228 60.6462C65.9108 60.1982 66.1828 59.7662 66.4388 59.3502C66.6948 58.9022 66.8548 58.5502 66.9188 58.2942C66.9828 58.2942 67.0308 58.3262 67.0628 58.3902C67.0948 58.4542 67.1268 58.4862 67.1588 58.4862C67.1908 58.4862 67.1908 58.4222 67.1588 58.2942C67.1588 58.1342 67.1268 58.0702 67.0628 58.1022C67.1588 57.9742 67.2228 57.8302 67.2548 57.6702C67.2868 57.4782 67.3668 57.3822 67.4948 57.3822C67.6548 57.3822 67.7348 57.4302 67.7348 57.5262C67.7348 57.5902 67.7188 57.6702 67.6868 57.7662C67.6548 57.8302 67.6388 57.8942 67.6388 57.9582L67.5908 58.9662L67.3028 59.2062L67.3988 59.2542H67.4468L67.3028 59.3502L67.4468 59.4942H67.3028C67.3028 59.6542 67.2708 59.8142 67.2068 59.9742C67.1748 60.1342 67.1268 60.2942 67.0628 60.4542L66.7748 60.5502L66.8708 60.7422L66.6308 61.0782L66.3428 61.1262L65.7188 62.7102L65.4308 62.6622L65.4788 63.0462L64.2308 64.4862L63.9908 64.4382L63.9428 64.7262L63.7508 64.8702H62.8868ZM54.1988 60.5502H54.2948L55.3508 60.0222C55.4148 60.0862 55.4308 60.1182 55.3988 60.1182C55.3668 60.1182 55.3508 60.1182 55.3508 60.1182C55.3508 60.2142 55.3828 60.2942 55.4468 60.3582C55.5108 60.3902 55.5588 60.4062 55.5908 60.4062L55.4948 59.9262C55.5588 59.7342 55.6868 59.6862 55.8788 59.7822L55.8308 59.8782L56.1668 59.7342H55.9268C55.8948 59.6382 55.9268 59.5902 56.0228 59.5902L56.7908 59.3982C56.8228 59.3662 56.7748 59.3502 56.6468 59.3502C56.5188 59.3182 56.4548 59.2862 56.4548 59.2542L56.7428 59.1102C56.9988 58.9822 57.2068 58.8382 57.3668 58.6782C57.5268 58.5182 57.6068 58.4382 57.6068 58.4382C57.6708 58.5342 57.7668 58.5822 57.8948 58.5822H57.9428V57.9582L58.2788 57.6222L58.4708 57.6702L58.4228 57.4302L58.8068 57.2862C58.8708 56.9982 59.0148 56.7902 59.2388 56.6622C59.4628 56.5022 59.6388 56.3262 59.7668 56.1342H59.6708C59.7348 55.9742 59.8628 55.8782 60.0548 55.8462C60.2468 55.7822 60.3588 55.6542 60.3908 55.4622L60.2948 55.2702L60.8228 54.8382L60.7268 54.7902C60.7908 54.7262 60.8228 54.6622 60.8228 54.5982C60.8548 54.5022 60.9348 54.4702 61.0628 54.5022L61.3028 54.5502V54.0702L61.4948 53.7342H61.8788C61.9428 53.5422 61.8788 53.4462 61.6868 53.4462L62.3588 52.5342L62.6468 52.6782V52.5822L62.3588 52.4862L62.5508 52.1982L62.7428 52.1502L62.7908 52.1022C62.6948 52.1022 62.6628 52.0702 62.6948 52.0062C62.7268 51.9102 62.7908 51.8782 62.8868 51.9102L62.9348 51.5262L63.1748 51.4302H63.0788L63.1748 51.1902H63.5108L63.4148 50.4702L63.5108 50.3742L63.3668 50.2302C63.3028 50.4542 63.1428 50.5822 62.8868 50.6142C62.6308 50.6462 62.4068 50.6622 62.2148 50.6622C62.2788 50.6942 62.2948 50.7582 62.2628 50.8542C62.2308 50.9182 62.1828 50.9342 62.1188 50.9022L61.8308 50.7582H61.6868L61.8308 51.0942L61.3988 50.9982L61.4948 51.1902H61.2548V51.3822L60.8228 51.6702C60.7908 51.6702 60.6468 51.6542 60.3908 51.6222C60.1668 51.5902 60.1188 51.6382 60.2468 51.7662H60.3428C60.3428 51.9262 60.2948 51.9902 60.1988 51.9582C60.1028 51.9262 60.0388 51.9102 60.0068 51.9102L60.1028 51.9582C59.4948 52.2462 58.9508 52.6622 58.4708 53.2062C58.5348 53.2382 58.5188 53.2862 58.4228 53.3502C58.3588 53.4142 58.2948 53.3982 58.2308 53.3022V53.5902L58.1348 53.4942C58.1348 53.6542 58.0388 53.7982 57.8468 53.9262C57.6548 54.0222 57.4788 54.1022 57.3188 54.1662C57.2228 54.3582 57.1108 54.5502 56.9828 54.7422C56.8548 54.9342 56.7108 55.0782 56.5508 55.1742L56.4548 55.1262L55.9268 55.4622V55.6062C55.9268 55.9262 55.8308 56.2142 55.6388 56.4702C55.4788 56.6942 55.3028 56.9342 55.1108 57.1902L54.9668 57.0462L54.8228 57.6702H54.4868V58.2942H54.0548C54.0228 58.2942 54.0228 58.3262 54.0548 58.3902C54.0868 58.4542 54.1348 58.5022 54.1988 58.5342C54.1668 58.7902 54.0868 59.0462 53.9588 59.3022C53.8628 59.5262 53.7988 59.7662 53.7668 60.0222H54.0068C53.9428 60.2782 54.0388 60.3902 54.2948 60.3582L54.1988 60.5502ZM54.2948 58.5822C54.2948 58.6142 54.2628 58.5982 54.1988 58.5342V58.4862L54.2948 58.53420V58.5822Z" fill="#FFFFFF"/>
<path fill-rule="evenodd" clip-rule="evenodd" d="M46.037 1H1L1.00068 1.00072L0.999997 1.00001V47.4445L19.9296 67V20.8554L19.963 20.8904H65L46.037 1Z" fill="#E32855"/>
<path fill-rule="evenodd" clip-rule="evenodd" d="M71.3491 74.8325L71.3491 17.8382L95 41.8861V99L94.7044 98.6995L38.651 98.6995L15.0001 74.6515L71.1711 74.6515L71.3491 74.8325Z" fill="#E32D6F"/>
<!--<rect x="95" width="2" height="100" fill="#C4C4C4"/>-->
<!--<path d="M0 100H96V98.5H0V100Z" fill="white" fill-opacity="0.71"/>-->
<!--<rect width="1.5" height="100" fill="#C4C4C4"/>-->
<!--<path d="M0 1.5H96V0H0V1.5Z" fill="white" fill-opacity="0.71"/>-->
<defs>
<linearGradient id="paint0_linear_4_3" x1="48.5" y1="89" x2="85" y2="49.5" gradientUnits="userSpaceOnUse">
<!--<stop stop-color="#E32D6F"/>-->
<stop offset="0.523958" stop-color="#E69DD4"/>
<stop offset="1" stop-color="#DF21AA"/>
</linearGradient>
</defs>
</svg>
